<svg width="40" height="40" viewBox="0 0 40 40" fill="none" xmlns="http://www.w3.org/2000/svg">
<path d="M12.5282 22.9596C12.5282 22.9596 20.8719 22.9596 20.8719 15.1979C20.8719 7.43633 7.97711 17.3147 12.5282 22.9596Z" fill="#C5A02E"/>
<path d="M12.5282 23.6652C12.4104 23.6653 12.2943 23.6398 12.189 23.5908C12.0837 23.5418 11.9921 23.4707 11.9215 23.383C10.2031 21.251 10.4712 18.2854 12.6393 15.4494C14.3829 13.1685 17.4289 11.0994 19.6342 11.7536C20.5446 12.024 21.6304 12.8413 21.6304 15.1978C21.6304 23.5684 12.6192 23.6652 12.5282 23.6652ZM18.7497 13.0419C17.5141 13.0419 15.446 14.2134 13.8757 16.2674C13.2408 17.097 11.3682 19.898 12.9163 22.2375C14.4815 22.1283 20.1133 21.3106 20.1133 15.198C20.1133 14.3674 19.9505 13.3289 19.1726 13.0982C19.0459 13.0606 18.9045 13.0419 18.7497 13.0419Z" fill="white"/>
<path d="M33.1983 18.7935C33.1621 18.7935 33.1249 18.7911 33.0879 18.7863L31.6739 18.5947C31.4749 18.5677 31.2956 18.4682 31.1754 18.3182C31.0552 18.1682 31.004 17.9799 31.0331 17.7948C31.0474 17.703 31.0809 17.6148 31.1319 17.5351C31.1828 17.4554 31.2502 17.3859 31.3301 17.3305C31.4099 17.275 31.5008 17.2348 31.5974 17.2121C31.694 17.1893 31.7945 17.1846 31.8931 17.198L33.3072 17.3896C33.4965 17.4156 33.6683 17.5072 33.7881 17.6461C33.9078 17.785 33.9667 17.9609 33.953 18.1385C33.9392 18.3161 33.8538 18.4823 33.7138 18.6038C33.5739 18.7253 33.3897 18.793 33.1983 18.7935Z" fill="white"/>
<path d="M6.45951 22.254C6.45951 22.254 4.18396 26.4876 8.73507 29.31L12.5277 32.1324L16.3203 30.7212C16.3203 30.7212 18.5958 22.254 11.7691 20.8428C4.94248 19.4316 6.45951 22.254 6.45951 22.254Z" fill="#C5A02E"/>
<path d="M12.5277 32.838C12.3554 32.838 12.1882 32.7835 12.0537 32.6833L8.26106 29.8609C4.48705 27.5232 4.8373 23.9977 5.64114 22.2222C5.5101 21.7743 5.48924 21.1407 5.93601 20.609C6.76261 19.6229 8.66933 19.4786 11.9338 20.1539C13.8189 20.5436 15.2508 21.4577 16.19 22.8708C18.3175 26.0728 17.1086 30.6968 17.0559 30.8923C17.0269 31.0007 16.9706 31.1011 16.8917 31.1853C16.8127 31.2695 16.7133 31.335 16.6017 31.3763L12.8091 32.7875C12.7181 32.8214 12.6225 32.838 12.5277 32.838ZM7.13883 22.5678C7.05369 22.7297 5.24102 26.2949 9.15592 28.7229L12.6559 31.3248L15.6625 30.2061C15.8802 29.1426 16.3884 25.8495 14.8966 23.6091C14.1707 22.5189 13.0943 21.8396 11.6048 21.5316C7.87592 20.7605 7.1997 21.3993 7.13371 21.4744C6.99661 21.6335 7.14111 21.9444 7.14263 21.9475C7.23953 22.1412 7.24104 22.3762 7.13883 22.5678Z" fill="white"/>
<path d="M9.49387 27.1932C9.49387 27.1932 7.21831 27.8988 8.73535 30.7212C10.2524 33.5436 16.3205 35.6605 16.3205 35.6605C16.3205 35.6605 18.5961 33.5436 15.562 31.4268L9.49387 27.1932Z" fill="#C5A02E"/>
<path d="M16.3203 36.3659C16.2306 36.3659 16.1411 36.351 16.0536 36.3211C15.7952 36.2304 9.68853 34.072 8.05657 31.0366C7.41506 29.8424 7.28478 28.7983 7.66992 27.933C8.13148 26.8974 9.14031 26.5587 9.2537 26.5236C9.37002 26.4875 9.49401 26.4783 9.61503 26.4966C9.73605 26.5149 9.85048 26.5602 9.94851 26.6287L16.0167 30.8624C17.1819 31.675 17.8123 32.604 17.89 33.6234C18.0011 35.0766 16.9034 36.1157 16.8567 36.1591C16.7863 36.2247 16.7027 36.2767 16.6106 36.3122C16.5186 36.3477 16.4199 36.3659 16.3203 36.3659ZM9.43215 28.032C9.26885 28.1518 9.14215 28.3094 9.06464 28.4889C8.86762 28.9516 8.98841 29.6145 9.41356 30.4055C10.4402 32.3159 14.1736 34.0744 16.0639 34.8061C16.2342 34.5419 16.4128 34.1515 16.3758 33.7119C16.3261 33.1231 15.8987 32.544 15.107 31.991L9.43215 28.032Z" fill="white"/>
<path d="M20.1127 37.7413C20.1127 37.7413 14.2722 38.7699 11.769 34.6555C11.769 34.6555 15.9409 32.5983 20.1127 37.7413Z" fill="#C5A02E"/>
<path d="M18.4755 38.566C16.3822 38.566 12.9645 38.0519 11.1095 35.0029C11.0597 34.9207 11.028 34.8302 11.0163 34.7365C11.0046 34.6429 11.0132 34.548 11.0414 34.4574C11.0699 34.3669 11.1175 34.2827 11.1815 34.2095C11.2455 34.1364 11.3246 34.0759 11.414 34.0316C11.4622 34.0085 16.2103 31.7583 20.7184 37.316C20.7963 37.4117 20.8466 37.5244 20.8645 37.6434C20.8824 37.7623 20.8673 37.8835 20.8206 37.9955C20.7742 38.1075 20.6978 38.2066 20.5986 38.2834C20.4995 38.3603 20.3808 38.4122 20.254 38.4344C20.1704 38.4492 19.4733 38.566 18.4755 38.566ZM12.9563 35.0321C14.5541 36.8796 17.0081 37.1782 18.5955 37.1569C16.257 34.855 14.0984 34.8196 12.9563 35.0321Z" fill="white"/>
<path d="M19.3547 2.49715C19.3547 2.49715 16.3207 -1.03086 10.2525 1.79155C4.18437 4.61395 2.66733 14.4924 4.18437 18.726C5.70141 22.9596 7.97696 24.3708 7.97696 24.3708L19.3547 2.49715Z" fill="#C5A02E"/>
<path d="M7.97721 25.0764C7.82744 25.0764 7.68102 25.0352 7.55642 24.9579C7.45497 24.8949 5.0461 23.3616 3.46535 18.9493C1.8698 14.4966 3.45492 4.16451 9.91352 1.16041C16.4535 -1.88285 19.9127 2.01666 19.9476 2.05653C20.0369 2.16057 20.0929 2.28601 20.1089 2.41835C20.1249 2.55069 20.1003 2.68455 20.038 2.80446L8.66025 24.6781C8.59808 24.7975 8.50105 24.8981 8.38025 24.9686C8.25945 25.039 8.11978 25.0764 7.97721 25.0764ZM14.7203 1.4019C13.5876 1.4019 12.2135 1.66827 10.592 2.42273C4.92246 5.05974 3.49209 14.561 4.90388 18.5027C5.82093 21.0615 7.00384 22.5133 7.73126 23.2239L18.4395 2.63671C17.8935 2.186 16.6624 1.4019 14.7203 1.4019Z" fill="white"/>
<path d="M10.6926 14.4923C10.6926 14.4923 5.74175 17.873 8.01731 24.2234C8.01731 24.2234 12.5278 22.2539 12.5278 18.7259L10.6926 14.4923Z" fill="#C5A02E"/>
<path d="M8.0179 24.9288C7.85874 24.9289 7.70359 24.8824 7.57447 24.7958C7.44536 24.7093 7.34884 24.587 7.29863 24.4465C4.87574 17.6865 10.1897 13.9604 10.2438 13.9236C10.3371 13.8603 10.4447 13.8175 10.5584 13.7985C10.672 13.7794 10.7889 13.7846 10.9001 13.8137C11.0113 13.8431 11.1138 13.8958 11.1998 13.9677C11.2858 14.0396 11.353 14.1288 11.3963 14.2286L13.232 18.4622C13.2682 18.546 13.2868 18.6354 13.2868 18.7261C13.2868 22.6571 8.54222 24.7739 8.34008 24.8621C8.23921 24.906 8.12924 24.9288 8.0179 24.9288ZM10.3985 15.7008C9.29031 16.8058 7.45109 19.3195 8.47775 23.1692C9.63771 22.4836 11.6851 20.9783 11.7674 18.8571L10.3985 15.7008Z" fill="white"/>
<path d="M15.5617 27.1932C15.5617 27.1932 22.8708 30.7996 18.4578 36.0524C18.4578 36.0524 11.0106 32.1324 15.5617 27.1932Z" fill="#C5A02E"/>
<path d="M18.4576 36.7582C18.3269 36.7582 18.1985 36.7266 18.085 36.6664C17.919 36.5793 14.013 34.49 13.4087 31.2855C13.1138 29.7214 13.6442 28.1899 14.9864 26.7339C15.0984 26.6121 15.2517 26.5296 15.421 26.4997C15.5902 26.4699 15.7654 26.4946 15.9175 26.5698C16.0753 26.6476 19.7975 28.516 20.5145 31.6482C20.8848 33.2658 20.3937 34.8936 19.056 36.4869C18.9851 36.5715 18.8943 36.6399 18.7906 36.6869C18.6869 36.734 18.573 36.7583 18.4576 36.7582ZM15.7428 28.1218C15.0029 29.0888 14.7205 30.0673 14.902 31.0375C15.2583 32.9414 17.2599 34.4487 18.2621 35.0958C19.005 34.0266 19.2643 32.97 19.0318 31.9477C18.6087 30.0864 16.6925 28.7051 15.7428 28.1218Z" fill="white"/>
<path d="M15.5618 7.4364C15.5618 7.4364 10.2522 9.5532 10.2522 18.726C10.2522 18.726 13.2863 19.4316 17.0789 16.6092L19.3544 10.2588L15.5618 7.4364Z" fill="#C5A02E"/>
<path d="M11.1799 19.5092C10.5155 19.5092 10.1148 19.421 10.0689 19.4103C9.90474 19.3721 9.759 19.2841 9.65485 19.16C9.5507 19.036 9.49413 18.8831 9.49414 18.7257C9.49414 9.19723 15.0283 6.88127 15.2638 6.7876C15.39 6.73714 15.5285 6.71956 15.6646 6.73675C15.8007 6.75393 15.9292 6.80523 16.0364 6.88515L19.829 9.70756C19.9501 9.79774 20.0386 9.92035 20.0824 10.0588C20.1263 10.1973 20.1234 10.3449 20.0741 10.4818L17.7986 16.8322C17.7527 16.9612 17.6675 17.075 17.5534 17.1598C14.865 19.1603 12.5013 19.5092 11.1799 19.5092ZM11.0191 18.1005C11.9798 18.1287 13.9954 17.9368 16.4317 16.1853L18.468 10.5022L15.4821 8.2803C14.3629 8.93563 11.205 11.3735 11.0191 18.1005Z" fill="white"/>
<path d="M17.8374 1.79167C17.8374 1.79167 12.5278 6.73088 16.3203 13.0813L29.2152 5.31968C29.2152 5.31968 29.2152 -1.73633 17.8374 1.79167Z" fill="#C5A02E"/>
<path d="M16.3204 13.7868C16.1851 13.7868 16.0523 13.7531 15.9358 13.6893C15.8192 13.6255 15.7231 13.5339 15.6574 13.4239C11.6337 6.68594 17.2441 1.34559 17.3012 1.29267C17.3842 1.21523 17.4857 1.15684 17.5974 1.12209C22.1054 -0.276056 25.4973 -0.243598 27.6766 1.21753C29.9477 2.74004 29.9735 5.21476 29.9735 5.31954C29.9736 5.43733 29.9418 5.55325 29.8813 5.6567C29.8207 5.76014 29.7333 5.84782 29.6269 5.91171L16.7321 13.6733C16.6096 13.7475 16.4665 13.7869 16.3204 13.7868ZM18.2567 2.40576C17.5441 3.13447 14.0989 7.03627 16.6137 12.064L28.4212 4.95704C28.3287 4.35992 27.9923 3.15987 26.7737 2.3516C25.0619 1.21576 22.1189 1.23534 18.2567 2.40576Z" fill="white"/>
<path d="M29.9739 6.73075C29.9739 6.73075 30.8309 11.6938 18.6453 11.682C18.6453 11.682 24.6643 1.79154 29.9739 6.73075Z" fill="#C5A02E"/>
<path d="M18.6884 12.3876C18.4025 12.3911 18.132 12.2661 17.9891 12.0373C17.9225 11.9307 17.887 11.8097 17.8862 11.6864C17.8855 11.5631 17.9194 11.4418 17.9847 11.3345C18.1358 11.0858 21.7416 5.2367 26.0965 4.6858C27.7106 4.4833 29.1884 5.00315 30.5097 6.23213C30.6225 6.33713 30.6969 6.47247 30.7223 6.61897C30.7327 6.67683 30.9527 8.05329 29.675 9.44614C27.8854 11.3982 24.1884 12.3876 18.6884 12.3876ZM26.7611 6.05449C26.61 6.05449 26.4573 6.06455 26.3034 6.08378C23.699 6.41206 21.2277 9.33201 20.0405 10.9547C25.3323 10.7776 27.5745 9.5631 28.5213 8.53027C29.085 7.91569 29.2043 7.33481 29.225 7.04128C28.4433 6.37995 27.6313 6.05449 26.7611 6.05449Z" fill="white"/>
<path d="M23.9057 10.9643C23.9057 10.9643 25.4227 17.3147 14.8035 16.6091C14.8035 16.6091 15.562 9.55311 23.9057 10.9643Z" fill="#C5A02E"/>
<path d="M16.3812 17.3694C15.8597 17.3694 15.316 17.3505 14.7494 17.313C14.6482 17.3063 14.5495 17.2807 14.4591 17.2379C14.3687 17.195 14.2885 17.1358 14.2232 17.0636C14.1578 16.9914 14.1087 16.9078 14.0788 16.8176C14.0488 16.7275 14.0386 16.6326 14.0487 16.5388C14.0627 16.4072 14.4257 13.2963 17.0976 11.4239C18.8746 10.1786 21.2123 9.78968 24.0412 10.27C24.1882 10.2948 24.324 10.3593 24.4316 10.4556C24.5393 10.5519 24.614 10.6756 24.6464 10.8112C24.6693 10.9088 25.1974 13.226 23.4479 15.1131C22.0575 16.6128 19.6841 17.3694 16.3812 17.3694ZM15.7167 15.9473C18.87 16.0431 21.1397 15.4419 22.2989 14.1912C23.1581 13.2651 23.2501 12.1785 23.2203 11.577C21.0811 11.3041 19.3337 11.629 18.0218 12.5435C16.5842 13.5452 15.9679 15.0552 15.7167 15.9473Z" fill="white"/>
<path d="M9.19897 23.6605C9.19897 23.6605 7.97681 26.4873 9.49384 27.1929L9.19897 23.6605Z" fill="#C5A02E"/>
<path d="M9.49325 27.8988C9.37573 27.8989 9.25982 27.8734 9.15476 27.8244C7.07263 26.856 8.34372 23.7487 8.49542 23.3975C8.53253 23.3115 8.58746 23.2333 8.65708 23.1671C8.72671 23.1009 8.80967 23.0481 8.90121 23.0118C8.99276 22.9754 9.09111 22.9562 9.19064 22.9552C9.29018 22.9543 9.38894 22.9715 9.48131 23.006C9.66782 23.0758 9.817 23.2115 9.89616 23.3834C9.97532 23.5553 9.978 23.7494 9.90361 23.9231C9.57024 24.6996 9.20729 26.2712 9.83326 26.5619C9.98629 26.6329 10.109 26.75 10.1815 26.8941C10.254 27.0382 10.272 27.2009 10.2327 27.3557C10.1933 27.5105 10.0988 27.6484 9.96461 27.747C9.83039 27.8456 9.66428 27.8991 9.49325 27.8988Z" fill="white"/>
<g clip-path="url(#clip0_4125_810)">
<circle cx="19.6047" cy="21.3954" r="19.1047" fill="#C5A02E" stroke="white"/>
<path d="M20.8936 37.7268C21.2334 35.5622 21.7936 32.2751 22.4595 32.0846C23.2071 31.8706 31.2216 34.2776 31.3071 32.4055C31.3926 30.5334 33.1192 28.8217 33.4641 28.3403C33.8091 27.8589 32.6591 27.003 32.6591 27.003C32.6591 27.003 33.9242 26.8962 33.8648 26.2008C33.8056 25.5054 33.8648 24.2752 33.8648 24.2752C33.8648 24.2752 35.8216 24.1147 36.2816 23.9007C36.7417 23.6867 36.0516 21.868 34.5697 19.889C33.0877 17.91 34.3154 16.7452 34.1811 13.0099C34.1238 11.4176 33.4728 10.0751 32.8296 8.96859C31.9454 7.44731 30.5698 6.22821 28.9566 5.36861C24.7929 3.14985 12.66 -0.564969 7.89635 6.03858C3.26124 12.4638 4.94249 19.4318 7.87966 22.5941C10.901 25.8471 9.94151 28.6882 8.73508 32.838C8.48364 33.7033 9.8496 31.4409 9.2223 32.838" fill="white"/>
<path d="M20.8946 38.4322C20.7858 38.4323 20.6781 38.4106 20.5791 38.3685C20.48 38.3264 20.3919 38.265 20.3206 38.1884C20.2494 38.1118 20.1967 38.0219 20.1661 37.9247C20.1355 37.8274 20.1278 37.7253 20.1435 37.625C20.9273 32.6251 21.4429 31.6375 22.2368 31.4101C22.6339 31.2961 23.1909 31.3974 24.8901 31.7325C26.256 32.0023 29.8361 32.7072 30.5523 32.3145C30.6611 30.5505 31.9648 28.9936 32.5952 28.2407C32.6433 28.1839 32.6862 28.1326 32.7241 28.0867C32.6219 27.9385 32.393 27.7087 32.1848 27.554C32.0668 27.466 31.9797 27.3473 31.9347 27.213C31.8897 27.0787 31.8888 26.935 31.9322 26.8002C31.9759 26.6654 32.0618 26.5458 32.179 26.4567C32.2962 26.3677 32.4393 26.3132 32.5901 26.3003C32.7679 26.2837 32.9923 26.223 33.1019 26.1659C33.0507 25.4289 33.1049 24.2934 33.107 24.2435C33.1152 24.0727 33.1899 23.9105 33.317 23.787C33.4441 23.6636 33.6151 23.5873 33.7982 23.5723C34.4344 23.5199 35.1929 23.4287 35.6323 23.3456C35.5026 22.8247 34.9892 21.6846 33.947 20.2923C32.8582 18.8384 33.0167 17.6907 33.2166 16.2382C33.3366 15.3714 33.4715 14.3892 33.4233 13.0334C33.3708 11.5684 32.7566 10.326 32.1626 9.30413C31.3834 7.96384 30.1448 6.81459 28.5796 5.98074C24.7752 3.9532 12.9545 0.295008 8.52625 6.4318C3.85889 12.9015 6.00474 19.4958 8.45362 22.1328C11.6424 25.5665 10.733 28.6845 9.58096 32.6315L9.46681 33.0226C9.20834 33.9111 8.33206 36.3452 7.69718 37.7586C7.61935 37.9311 7.47119 38.0678 7.28516 38.1389C7.09912 38.21 6.89038 38.2096 6.70466 38.1378C6.61275 38.1021 6.5293 38.0499 6.45909 37.9842C6.38887 37.9185 6.33326 37.8406 6.29543 37.7549C6.2576 37.6692 6.2383 37.5773 6.23863 37.4847C6.23896 37.392 6.25891 37.3004 6.29734 37.2149C6.90984 35.8503 7.75445 33.5073 8.00325 32.6541L8.1174 32.2619C9.27073 28.3081 9.96781 25.9216 7.3056 23.0558C3.8678 19.3545 2.68641 11.9946 7.2671 5.64594C12.1982 -1.19028 24.4857 2.17297 29.3337 4.7567C31.1441 5.72108 32.5834 7.06155 33.4974 8.63345C34.1352 9.7319 34.876 11.2191 34.939 12.987C34.9923 14.4561 34.8419 15.5441 34.7219 16.4178C34.5322 17.79 34.4374 18.4789 35.1916 19.4863C36.259 20.9113 37.4093 22.9258 37.1391 23.9132C37.0628 24.1927 36.8783 24.4125 36.6214 24.5324C36.2332 24.7125 35.3162 24.8397 34.6028 24.9156C34.5939 25.3063 34.5916 25.8027 34.6214 26.1456C34.665 26.6639 34.4029 27.0525 33.9939 27.3135C34.285 27.7353 34.4443 28.2462 34.0953 28.7327C34.0309 28.8219 33.9256 28.9495 33.7923 29.1086C33.2515 29.7546 32.1257 31.0982 32.065 32.436C32.0471 32.8209 31.856 33.1637 31.5272 33.4018C30.4338 34.1891 27.8465 33.7594 24.5754 33.1138C23.9323 32.9869 23.159 32.8347 22.7769 32.7899C22.5666 33.1727 22.191 34.3447 21.6443 37.8289C21.6178 37.9964 21.5276 38.1495 21.39 38.2602C21.2524 38.3709 21.0766 38.432 20.8946 38.4322Z" fill="white"/>
<path d="M12.528 22.9596C12.528 22.9596 20.8717 22.9596 20.8717 15.1979C20.8717 7.43633 7.97686 17.3147 12.528 22.9596Z" fill="#C5A02E"/>
<path d="M12.5279 23.6652C12.4102 23.6653 12.294 23.6398 12.1887 23.5908C12.0834 23.5418 11.9919 23.4707 11.9213 23.383C10.2029 21.251 10.471 18.2854 12.639 15.4494C14.3827 13.1685 17.4287 11.0994 19.6339 11.7536C20.5443 12.024 21.6301 12.8413 21.6301 15.1978C21.6301 23.5684 12.6189 23.6652 12.5279 23.6652ZM18.7495 13.0419C17.5138 13.0419 15.4457 14.2134 13.8754 16.2674C13.2405 17.097 11.3679 19.898 12.9161 22.2375C14.4813 22.1283 20.1131 21.3106 20.1131 15.198C20.1131 14.3674 19.9502 13.3289 19.1723 13.0982C19.0457 13.0606 18.9042 13.0419 18.7495 13.0419Z" fill="white"/>
<path d="M34.3652 18.9148C34.3295 18.9148 34.2929 18.9128 34.2564 18.9088L32.8621 18.7482C32.6658 18.7255 32.489 18.6421 32.3706 18.5164C32.2521 18.3906 32.2016 18.2328 32.2303 18.0776C32.2443 18.0007 32.2774 17.9268 32.3277 17.86C32.3779 17.7932 32.4443 17.7349 32.5231 17.6885C32.6018 17.642 32.6914 17.6083 32.7867 17.5892C32.8819 17.5702 32.981 17.5661 33.0782 17.5774L34.4726 17.738C34.6593 17.7598 34.8287 17.8366 34.9468 17.9531C35.0649 18.0695 35.1229 18.2169 35.1094 18.3658C35.0958 18.5147 35.0115 18.654 34.8735 18.7558C34.7355 18.8576 34.554 18.9144 34.3652 18.9148Z" fill="#C5A02E"/>
<path d="M6.45951 22.2541C6.45951 22.2541 4.18396 26.4877 8.73507 29.3101L12.5277 32.1325L16.3203 30.7213C16.3203 30.7213 18.5958 22.2541 11.7691 20.8429C4.94248 19.4317 6.45951 22.2541 6.45951 22.2541Z" fill="#C5A02E"/>
<path d="M12.528 32.8381C12.3556 32.8382 12.1884 32.7836 12.0539 32.6834L8.26131 29.861C4.4873 27.5233 4.83754 23.9978 5.64138 22.2223C5.51035 21.7744 5.48949 21.1408 5.93626 20.6091C6.76285 19.6231 8.66958 19.4788 11.9341 20.154C13.8192 20.5437 15.2511 21.4578 16.1903 22.8709C18.3177 26.073 17.1089 30.6969 17.0561 30.8924C17.0272 31.0008 16.9709 31.1013 16.8919 31.1854C16.8129 31.2696 16.7135 31.3351 16.602 31.3764L12.8094 32.7876C12.7184 32.8215 12.6228 32.8381 12.528 32.8381ZM7.13908 22.5679C7.05393 22.7298 5.24126 26.295 9.15617 28.723L12.6562 31.3249L15.6627 30.2062C15.8804 29.1427 16.3886 25.8496 14.8968 23.6092C14.1709 22.519 13.0946 21.8397 11.605 21.5317C7.87617 20.7607 7.19995 21.3994 7.13396 21.4746C6.99686 21.6337 7.14135 21.9445 7.14287 21.9477C7.23977 22.1413 7.24129 22.3763 7.13908 22.5679Z" fill="white"/>
<path d="M9.49387 27.1934C9.49387 27.1934 7.21831 27.899 8.73535 30.7214C10.2524 33.5438 16.3205 35.6606 16.3205 35.6606C16.3205 35.6606 18.5961 33.5438 15.562 31.427L9.49387 27.1934Z" fill="#C5A02E"/>
<path d="M16.3205 36.366C16.2308 36.366 16.1413 36.3512 16.0539 36.3212C15.7954 36.2305 9.68877 34.0721 8.05682 31.0368C7.4153 29.8425 7.28502 28.7984 7.67016 27.9332C8.13172 26.8975 9.14055 26.5588 9.25395 26.5237C9.37026 26.4877 9.49425 26.4784 9.61527 26.4967C9.73629 26.515 9.85072 26.5604 9.94875 26.6289L16.0169 30.8625C17.1822 31.6752 17.8125 32.6041 17.8903 33.6235C18.0014 35.0767 16.9036 36.1159 16.857 36.1592C16.7865 36.2248 16.7029 36.2768 16.6109 36.3123C16.5188 36.3478 16.4201 36.366 16.3205 36.366ZM9.43239 28.0321C9.2691 28.152 9.14239 28.3095 9.06489 28.489C8.86786 28.9517 8.98866 29.6146 9.41381 30.4056C10.4405 32.316 14.1739 34.0745 16.0641 34.8063C16.2344 34.542 16.413 34.1516 16.3761 33.712C16.3264 33.1232 15.899 32.5441 15.1072 31.9911L9.43239 28.0321Z" fill="white"/>
<path d="M20.1127 37.7414C20.1127 37.7414 14.2722 38.77 11.769 34.6556C11.769 34.6556 15.9409 32.5984 20.1127 37.7414Z" fill="#C5A02E"/>
<path d="M18.4755 38.5661C16.3822 38.5661 12.9645 38.0521 11.1095 35.003C11.0597 34.9209 11.028 34.8303 11.0163 34.7367C11.0046 34.643 11.0132 34.5481 11.0414 34.4576C11.0699 34.3671 11.1175 34.2828 11.1815 34.2097C11.2455 34.1365 11.3246 34.076 11.414 34.0317C11.4622 34.0086 16.2103 31.7585 20.7184 37.3161C20.7963 37.4119 20.8466 37.5246 20.8645 37.6435C20.8824 37.7624 20.8673 37.8836 20.8206 37.9956C20.7742 38.1076 20.6978 38.2068 20.5986 38.2836C20.4995 38.3604 20.3808 38.4123 20.254 38.4345C20.1704 38.4493 19.4733 38.5661 18.4755 38.5661ZM12.9563 35.0323C14.5541 36.8797 17.0081 37.1784 18.5955 37.157C16.257 34.8552 14.0984 34.8197 12.9563 35.0323Z" fill="white"/>
<path d="M24.6643 40.5637C24.6643 40.5637 18.8237 41.5923 16.3206 37.4779C16.3206 37.4779 20.4924 35.4207 24.6643 40.5637Z" fill="#C5A02E"/>
<path d="M23.0263 41.3885C20.9329 41.3885 17.5152 40.8745 15.6603 37.8254C15.6105 37.7433 15.5788 37.6527 15.5671 37.559C15.5554 37.4654 15.5639 37.3705 15.5922 37.2799C15.6207 37.1894 15.6683 37.1052 15.7323 37.032C15.7963 36.9589 15.8754 36.8984 15.9648 36.8541C16.013 36.831 20.7611 34.5808 25.2692 40.1385C25.3471 40.2343 25.3974 40.347 25.4153 40.4659C25.4332 40.5848 25.4181 40.706 25.3714 40.818C25.325 40.93 25.2486 41.0291 25.1494 41.106C25.0503 41.1828 24.9316 41.2347 24.8048 41.2569C24.7212 41.2717 24.0241 41.3885 23.0263 41.3885ZM17.5071 37.8547C19.1049 39.7024 21.5678 40.0059 23.1463 39.9794C20.8078 37.6775 18.6485 37.6431 17.5071 37.8547Z" fill="white"/>
<path d="M27.1134 41.0019C28.913 40.389 30.7293 42.0661 30.7293 42.0661C30.7293 42.0661 31.7721 37.3662 24.5737 39.8177C24.5737 39.8177 25.3139 41.6148 27.1134 41.0019Z" fill="#C5A02E"/>
<path d="M30.7295 42.7716C30.5295 42.7717 30.3375 42.6981 30.1955 42.567C30.1815 42.555 28.6971 41.2137 27.374 41.6647C25.5407 42.2904 24.2711 41.0531 23.8659 40.0702C23.8299 39.9829 23.813 39.8897 23.816 39.7962C23.8191 39.7027 23.8421 39.6107 23.8838 39.5255C23.9254 39.4404 23.9848 39.3638 24.0586 39.3002C24.1324 39.2366 24.219 39.1873 24.3134 39.1551C27.2119 38.1679 29.2935 38.1588 30.5016 39.129C31.8897 40.2428 31.4905 42.1292 31.4727 42.2087C31.4373 42.3678 31.3441 42.5106 31.2087 42.6131C31.0733 42.7156 30.9041 42.7716 30.7295 42.7716ZM27.9399 40.1614C28.6487 40.1614 29.3096 40.3736 29.8517 40.6335C29.774 40.4708 29.6621 40.3179 29.5058 40.1935C28.8681 39.6878 27.554 39.6912 25.754 40.1943C26.0066 40.3892 26.3665 40.5054 26.8525 40.3396C27.2008 40.2209 27.569 40.1606 27.9399 40.1614Z" fill="white"/>
<path d="M19.3547 1.67036C19.3547 1.67036 16.3207 -1.85764 10.2525 0.964764C4.18437 3.78717 2.66733 13.6656 4.18437 17.8992C5.70141 22.1328 7.97696 23.544 7.97696 23.544L19.3547 1.67036Z" fill="#C5A02E"/>
<path d="M7.97696 25.0765C7.82719 25.0765 7.68078 25.0353 7.55617 24.958C7.45472 24.895 5.04586 23.3618 3.4651 18.9495C1.86956 14.4968 3.45467 4.16463 9.91327 1.16053C16.4532 -1.88272 19.9124 2.01678 19.9473 2.05665C20.0367 2.1607 20.0926 2.28613 20.1086 2.41847C20.1246 2.55081 20.1001 2.68467 20.0378 2.80459L8.66001 24.6782C8.59784 24.7976 8.5008 24.8982 8.38001 24.9687C8.25921 25.0391 8.11953 25.0765 7.97696 25.0765ZM14.72 1.40203C13.5873 1.40203 12.2133 1.66839 10.5918 2.42286C4.92222 5.05986 3.49184 14.5611 4.90364 18.5028C5.82068 21.0617 7.00359 22.5134 7.73101 23.224L18.4392 2.63683C17.8933 2.18613 16.6622 1.40203 14.72 1.40203Z" fill="white"/>
<path d="M10.6924 14.4923C10.6924 14.4923 5.74151 17.873 8.01706 24.2234C8.01706 24.2234 12.5276 22.2539 12.5276 18.7259L10.6924 14.4923Z" fill="#C5A02E"/>
<path d="M8.01765 24.9289C7.8585 24.9291 7.70334 24.8825 7.57423 24.796C7.44511 24.7094 7.3486 24.5872 7.29839 24.4467C4.87549 17.6867 10.1895 13.9606 10.2435 13.9237C10.3369 13.8604 10.4444 13.8176 10.5581 13.7986C10.6718 13.7796 10.7886 13.7848 10.8998 13.8138C11.011 13.8433 11.1135 13.896 11.1995 13.9679C11.2855 14.0398 11.3528 14.129 11.3961 14.2287L13.2317 18.4623C13.2679 18.5461 13.2865 18.6355 13.2865 18.7262C13.2865 22.6573 8.54198 24.7741 8.33983 24.8623C8.23897 24.9061 8.129 24.9289 8.01765 24.9289ZM10.3983 15.7009C9.29007 16.8059 7.45085 19.3196 8.47751 23.1694C9.63747 22.4837 11.6849 20.9785 11.7672 18.8572L10.3983 15.7009Z" fill="white"/>
<path d="M15.562 27.1934C15.562 27.1934 22.8711 30.7997 18.458 36.0525C18.458 36.0525 11.0109 32.1326 15.562 27.1934Z" fill="#C5A02E"/>
<path d="M18.4573 36.7582C18.3267 36.7582 18.1982 36.7266 18.0847 36.6664C17.9188 36.5793 14.0128 34.49 13.4084 31.2855C13.1136 29.7214 13.644 28.1899 14.9862 26.7339C15.0982 26.6121 15.2515 26.5296 15.4207 26.4997C15.59 26.4699 15.7651 26.4946 15.9172 26.5698C16.075 26.6476 19.7973 28.516 20.5142 31.6482C20.8846 33.2658 20.3935 34.8936 19.0558 36.4869C18.9848 36.5715 18.894 36.6399 18.7903 36.6869C18.6866 36.734 18.5727 36.7583 18.4573 36.7582ZM15.7426 28.1218C15.0027 29.0888 14.7203 30.0673 14.9018 31.0375C15.2581 32.9414 17.2596 34.4487 18.2618 35.0958C19.0048 34.0266 19.264 32.97 19.0315 31.9477C18.6085 30.0864 16.6923 28.7051 15.7426 28.1218Z" fill="white"/>
<path d="M15.5618 7.43652C15.5618 7.43652 10.2522 9.55333 10.2522 18.7261C10.2522 18.7261 13.2863 19.4317 17.0789 16.6093L19.3544 10.2589L15.5618 7.43652Z" fill="#C5A02E"/>
<path d="M11.1799 19.5094C10.5155 19.5094 10.1148 19.4212 10.0689 19.4104C9.90474 19.3723 9.759 19.2842 9.65485 19.1601C9.5507 19.0361 9.49413 18.8832 9.49414 18.7258C9.49414 9.19735 15.0283 6.88139 15.2638 6.78772C15.39 6.73726 15.5285 6.71968 15.6646 6.73687C15.8007 6.75405 15.9292 6.80535 16.0364 6.88527L19.829 9.70768C19.9501 9.79787 20.0386 9.92047 20.0824 10.0589C20.1263 10.1974 20.1234 10.345 20.0741 10.4819L17.7986 16.8323C17.7527 16.9613 17.6675 17.0751 17.5534 17.1599C14.865 19.1604 12.5013 19.5094 11.1799 19.5094ZM11.0191 18.1006C11.9798 18.1289 13.9954 17.9369 16.4317 16.1855L18.468 10.5024L15.4821 8.28042C14.3629 8.93575 11.205 11.3736 11.0191 18.1006Z" fill="white"/>
<path d="M17.8376 1.79167C17.8376 1.79167 12.528 6.73088 16.3206 13.0813L29.2154 5.31968C29.2154 5.31968 29.2154 -1.73633 17.8376 1.79167Z" fill="#C5A02E"/>
<path d="M16.3204 13.7869C16.1851 13.7869 16.0523 13.7533 15.9358 13.6895C15.8192 13.6257 15.7231 13.534 15.6574 13.424C11.6337 6.68606 17.2441 1.34571 17.3012 1.29279C17.3842 1.21535 17.4857 1.15697 17.5974 1.12222C22.1054 -0.275934 25.4973 -0.243476 27.6766 1.21765C29.9477 2.74016 29.9735 5.21488 29.9735 5.31966C29.9736 5.43745 29.9418 5.55337 29.8813 5.65682C29.8207 5.76027 29.7333 5.84794 29.6269 5.91184L16.7321 13.6735C16.6096 13.7476 16.4665 13.787 16.3204 13.7869ZM18.2567 2.40588C17.5441 3.13459 14.0989 7.03639 16.6137 12.0642L28.4212 4.95716C28.3287 4.36004 27.9923 3.15999 26.7737 2.35173C25.0619 1.21588 22.1189 1.23546 18.2567 2.40588Z" fill="white"/>
<path d="M29.9739 6.73087C29.9739 6.73087 30.8309 11.6939 18.6453 11.6821C18.6453 11.6821 24.6643 1.79166 29.9739 6.73087Z" fill="#C5A02E"/>
<path d="M18.6887 12.3877C18.4027 12.3913 18.1323 12.2662 17.9893 12.0374C17.9227 11.9308 17.8873 11.8099 17.8865 11.6866C17.8857 11.5633 17.9197 11.4419 17.9849 11.3346C18.1361 11.0859 21.7419 5.23682 26.0967 4.68593C27.7109 4.48342 29.1886 5.00327 30.51 6.23225C30.6227 6.33725 30.6971 6.47259 30.7226 6.6191C30.733 6.67696 30.953 8.05341 29.6752 9.44626C27.8857 11.3983 24.1887 12.3877 18.6887 12.3877ZM26.7614 6.05462C26.6102 6.05462 26.4576 6.06467 26.3036 6.0839C23.6992 6.41218 21.228 9.33213 20.0407 10.9548C25.3325 10.7777 27.5747 9.56322 28.5215 8.53039C29.0853 7.91582 29.2046 7.33493 29.2252 7.0414C28.4436 6.38007 27.6316 6.05462 26.7614 6.05462Z" fill="white"/>
<path d="M23.9057 10.9643C23.9057 10.9643 25.4227 17.3147 14.8035 16.6091C14.8035 16.6091 15.562 9.55311 23.9057 10.9643Z" fill="#C5A02E"/>
<path d="M16.3812 17.3695C15.8597 17.3695 15.316 17.3507 14.7494 17.3131C14.6482 17.3064 14.5495 17.2808 14.4591 17.238C14.3687 17.1952 14.2885 17.1359 14.2232 17.0637C14.1578 16.9915 14.1087 16.9079 14.0788 16.8177C14.0488 16.7276 14.0386 16.6328 14.0487 16.5389C14.0627 16.4073 14.4257 13.2965 17.0976 11.424C18.8746 10.1788 21.2123 9.7898 24.0412 10.2701C24.1882 10.2949 24.324 10.3595 24.4316 10.4557C24.5393 10.552 24.614 10.6757 24.6464 10.8113C24.6693 10.9089 25.1974 13.2261 23.4479 15.1132C22.0575 16.613 19.6841 17.3695 16.3812 17.3695ZM15.7167 15.9474C18.87 16.0432 21.1397 15.442 22.2989 14.1913C23.1581 13.2652 23.2501 12.1786 23.2203 11.5771C21.0811 11.3042 19.3337 11.6291 18.0218 12.5436C16.5842 13.5454 15.9679 15.0554 15.7167 15.9474Z" fill="white"/>
<path d="M9.19873 23.6606C9.19873 23.6606 7.97656 26.4875 9.4936 27.1931L9.19873 23.6606Z" fill="#C5A02E"/>
<path d="M9.49325 27.899C9.37573 27.899 9.25982 27.8735 9.15476 27.8245C7.07263 26.8561 8.34372 23.7488 8.49542 23.3976C8.53253 23.3117 8.58746 23.2334 8.65708 23.1672C8.72671 23.101 8.80967 23.0483 8.90121 23.0119C8.99276 22.9756 9.09111 22.9564 9.19064 22.9554C9.29018 22.9544 9.38894 22.9716 9.48131 23.0061C9.66782 23.0759 9.817 23.2116 9.89616 23.3835C9.97532 23.5554 9.978 23.7495 9.90361 23.9233C9.57024 24.6998 9.20729 26.2713 9.83326 26.562C9.98629 26.6331 10.109 26.7501 10.1815 26.8942C10.254 27.0383 10.272 27.201 10.2327 27.3558C10.1933 27.5106 10.0988 27.6485 9.96461 27.7471C9.83039 27.8457 9.66428 27.8992 9.49325 27.899Z" fill="white"/>
</g>
<defs>
<clipPath id="clip0_4125_810">
<rect y="2.79065" width="40" height="37.2094" rx="18.6047" fill="white"/>
</clipPath>
</defs>
</svg>

